# xmcd
#
# Track frame offsets: 
#        150
#        15355
#        32890
#        44700
#        60090
#        77335
#        90423
#        111218
#        124163
#        142085
#        155248
#        169538
#        184680
#        195388
#
# Disc length: 2816 seconds
#
# Revision: 0
# Processed by: cddbd v1.5.2PL0 Copyright (c) Steve Scherf et al.
# Submitted via: ExactAudioCopyFreeDBPlugin 1.0
#
DISCID=ad0afe0e
DTITLE=Nashville Jug Band - Nashville Jug Band
DYEAR=1988
DGENRE=Country
TTITLE0=Pretend
TTITLE1=Crazy Blues
TTITLE2=Titanic
TTITLE3=Dallas Rag
TTITLE4=Racetrack Blues
TTITLE5=Shortnin' Bread
TTITLE6=The Women Make a Fool Out of Me
TTITLE7=You Done Me Wrong
TTITLE8=K.C. Moan
TTITLE9=Mound Bayou
TTITLE10=Don't You Love Your Daddy NoMore
TTITLE11=Blue Moon of Kentucky
TTITLE12=What's the Matter With the Mill?
TTITLE13=Empty Boudoir Blues
EXTD=
EXTT0=
EXTT1=
EXTT2=
EXTT3=
EXTT4=
EXTT5=
EXTT6=
EXTT7=
EXTT8=
EXTT9=
EXTT10=
EXTT11=
EXTT12=
EXTT13=
PLAYORDER=
